<svg width="800" height="800" xmlns="http://www.w3.org/2000/svg" fill="none">
 <g>
  <title>Layer 1</title>
  <path stroke="#0891B2" d="m689.47485,302.90054c-0.3316,-0.0416 -0.67133,-0.06308 -1.01611,-0.06308c-21.9834,0 -42.09912,8.6922 -57.61304,23.11951l-86.495,-66.54764c3.758,-10.66887 5.90228,-22.28815 5.90228,-34.44205c0,-53.41182 -39.79303,-96.7565 -88.83014,-96.7565c-32.52048,0 -60.90631,19.077 -76.35446,47.50156l-188.17758,-59.88181c0.03824,-1.08869 0.05655,-2.18867 0.05655,-3.30115c0,-53.46657 -39.79028,-96.81512 -88.83064,-96.81512c-49.03732,0 -88.83101,43.34439 -88.83101,96.75707c0,53.4121 39.79368,96.75707 88.83101,96.75707c13.67005,0 26.59489,-3.4101 38.15858,-9.45335l85.85806,112.21185l-54.7238,27.03558c-16.28258,-22.05594 -41.25266,-36.18509 -69.29285,-36.18509c-49.03732,0 -88.83101,43.34351 -88.83101,96.75674c0,53.4133 39.79368,96.7554 88.83101,96.7554c28.04021,0 53.0103,-14.13058 69.29285,-36.18365l54.7238,27.03561l-85.86853,112.22617c-11.54265,-6.01031 -24.46104,-9.46771 -38.14813,-9.46771c-49.03732,0 -88.83101,43.3421 -88.83101,96.75537c0,53.41327 39.79368,96.75824 88.83101,96.75824c49.0365,0 88.83066,-43.34497 88.83066,-96.75824c0,-1.10803 -0.01959,-2.20746 -0.05786,-3.29974l188.18292,-59.88507c15.44797,28.37152 43.82336,47.5033 76.35043,47.5033c49.03711,0 88.83014,-43.3421 88.83014,-96.75537c0,-12.17969 -2.10217,-23.7746 -5.88507,-34.4549l86.4884,-66.5405c15.50073,14.37857 35.60846,23.12668 57.60242,23.12668c49.03729,0 88.83289,-43.34637 88.83289,-96.75961c0,-53.04059 -39.2467,-96.15479 -87.81677,-96.74963l0,0.00006zm-306.55719,-12.83478l-55.1409,72.05615l-24.86096,-32.48685l80.00186,-39.56931zm-198.46065,-128.34349l188.19221,59.88654c-0.03824,1.09517 -0.05801,2.19743 -0.05801,3.30116c0,5.81105 0.5108,11.44722 1.41641,16.88129l-100.36627,49.60757l-93.60434,-122.30452c1.57419,-2.38374 3.04715,-4.84491 4.42,-7.37202l0,-0.00002zm76.95738,287.29604l-65.88071,-32.56714c0.90305,-5.42691 1.41367,-11.05304 1.41367,-16.85696c0,-5.81104 -0.51192,-11.44867 -1.41751,-16.88272l65.83438,-32.54559l37.83966,49.43265l-37.78952,49.41983l0.00003,-0.00006zm344.0994,-14.96915l-86.52411,66.56769c-15.50598,-14.35995 -35.60052,-23.03635 -57.56683,-23.03635c-13.66974,0 -26.59457,3.4072 -38.15939,9.4519l-66.8613,-87.38226l66.87173,-87.39374c11.54138,6.00888 24.46201,9.46915 38.14896,9.46915c21.98334,0 42.09509,-8.69366 57.61298,-23.11951l86.495,66.54477c-3.76202,10.66885 -5.90228,22.29092 -5.90228,34.44339c0,12.12958 2.09943,23.75598 5.88525,34.45496zm-222.43689,75.14951l-80.15454,-39.64386l24.90695,-32.54565l55.24765,72.18951l-0.00006,0zm-10.37515,68.37952l-188.2171,59.89374c-1.37157,-2.52423 -2.84581,-4.97968 -4.41614,-7.34772l93.62558,-122.33307l100.3688,49.60468c-0.90561,5.43408 -1.41641,11.07172 -1.41641,16.88275c0,1.10657 0.01721,2.20746 0.05527,3.29968l0,-0.00006z" fill="#0891B2" stroke-width="10" stroke-linejoin="round" id="svg_25"/>
 </g>

</svg>