<svg width="1705" height="436" xmlns="http://www.w3.org/2000/svg" fill="none">

 <g>
  <title>Layer 1</title>
  <path id="svg_1" stroke-linejoin="round" stroke-width="10" stroke="#0891B2" fill="white" d="m262.94702,16.52399c0,-3.6274 -2.94202,-6.5681 -6.56702,-6.5681l-50.97003,0c-2.29895,0 -4.43201,1.20351 -5.62195,3.1724l-65.74805,108.8849l-66.09399,-108.8975c-1.19299,-1.9618 -3.32098,-3.15981 -5.61401,-3.15981l-50.76495,0c-3.62805,0 -6.56702,2.9407 -6.56702,6.5681l0,250.23119c0,3.62799 2.93896,6.56799 6.56702,6.56799l49.302,0c3.62799,0 6.56696,-2.94 6.56696,-6.56799l0,-138.19899l58.039,95.62399c1.23401,2.03101 3.47003,3.23901 5.84399,3.155l5.76801,-0.202c2.20905,-0.07901 4.23199,-1.26401 5.38,-3.15298l58.367,-96.05602l0,138.83099c0,3.62799 2.93903,6.56799 6.56702,6.56799l48.979,0c3.625,0 6.56702,-2.94 6.56702,-6.56799l0,-250.23119z"/>
  <path id="svg_2" stroke-linejoin="round" stroke-width="10" stroke="#0891B2" fill="white" d="m302.83997,9.95589c-3.62695,0 -6.56598,2.9407 -6.56598,6.5681l0,250.23119c0,3.62799 2.93903,6.56799 6.56598,6.56799l49.30304,0c3.62396,0 6.56396,-2.94 6.56396,-6.56799l0,-250.23119c0,-3.6274 -2.94,-6.5681 -6.56396,-6.5681l-49.30304,0z"/>
  <path id="svg_3" stroke-linejoin="round" stroke-width="10" stroke="#0891B2" fill="white" d="m543.34698,9.95589c-3.63,0 -6.56995,2.9407 -6.56995,6.5681l0,131.70721l-95.32007,-135.487c-1.22998,-1.74821 -3.22998,-2.78831 -5.37,-2.78831l-37.47998,0c-3.63,0 -6.56995,2.9407 -6.56995,6.5681l0,250.23119c0,3.62799 2.93994,6.56799 6.56995,6.56799l49.30005,0c3.63,0 6.56995,-2.94 6.56995,-6.56799l0,-132.16998l95.27002,135.94c1.22998,1.75497 3.23999,2.79797 5.38,2.79797l37.52002,0c3.63,0 6.56995,-2.94 6.56995,-6.56799l0,-250.23119c0,-3.6274 -2.93994,-6.5681 -6.56995,-6.5681l-49.30005,0z"/>
  <path id="svg_4" stroke-linejoin="round" stroke-width="10" stroke="#0891B2" fill="white" d="m632.58698,266.75519c0,3.62799 2.94006,6.56799 6.57007,6.56799l99.32996,0c36.01001,0 66.42004,-12.71301 90.68994,-38.14497c24.2301,-25.35101 36.30005,-56.703 36.30005,-93.53801c0,-36.841 -12.06995,-68.151 -36.30005,-93.538c-24.2699,-25.433 -54.63989,-38.1463 -90.68994,-38.1463l-99.32996,0c-3.63,0 -6.57007,2.9407 -6.57007,6.5681l0,250.23119zm105.90002,-53.77c-0.25,0 -0.48999,0.013 -0.72998,0.04001l-42.72998,0l0,-142.73l43.45996,0c20.04004,0 35.91003,6.58 48.09998,19.543c12.26001,12.99901 18.59998,30.062 18.59998,51.802c0,21.731 -6.37,38.79401 -18.59998,51.80101c-12.19995,12.966 -28.02002,19.54398 -48.09998,19.54398z"/>
  <path id="svg_5" stroke-linejoin="round" stroke-width="10" stroke="#0891B2" fill="white" d="m931.19696,273.32318l0.04004,0l59.42004,0c2.92993,0 5.51001,-1.94897 6.30994,-4.77597l40.78009,-143.81601l41.05981,143.82898c0.80005,2.819 3.38,4.763 6.31006,4.763l56.13013,0c2.97998,0 5.58984,-2.01196 6.34985,-4.89697l65.75,-250.23251c0.52014,-1.9697 0.09009,-4.06779 -1.1499,-5.6805c-1.24011,-1.6126 -3.16003,-2.5573 -5.19995,-2.5573l-47.52014,0c-2.98987,0 -5.60986,2.0308 -6.35999,4.9356l-41.41992,161.4597l-45.76001,-161.6169c-0.80005,-2.8269 -3.39014,-4.7784 -6.31995,-4.7784l-42.73004,0c-2.94006,0 -5.52002,1.9568 -6.32007,4.78921l-45.60999,162.1371l-42.02002,-162.0078c-0.76001,-2.8961 -3.37,-4.9185 -6.35999,-4.9185l-51.57996,0c-2.04004,0 -3.95996,0.9466 -5.20007,2.5621c-1.25,1.6155 -1.66992,3.7165 -1.1499,5.6872l66.04993,249.51898c0.47009,3.16904 3.20007,5.599 6.5,5.599z"/>
  <path id="svg_6" stroke-linejoin="round" stroke-width="10" stroke="#0891B2" fill="white" d="m931.19696,273.32318l0.04004,0l59.42004,0c2.92993,0 5.51001,-1.94897 6.30994,-4.77597l40.78009,-143.81601l41.05981,143.82898c0.80005,2.819 3.38,4.763 6.31006,4.763l56.13013,0c2.97998,0 5.58984,-2.01196 6.34985,-4.89697l65.75,-250.23251c0.52014,-1.9695 0.09009,-4.06789 -1.1499,-5.6805c-1.24011,-1.6126 -3.16003,-2.5571 -5.19995,-2.5571l-47.52014,0c-2.98987,0 -5.60986,2.0309 -6.35999,4.9353l-41.41992,161.4598l-45.76001,-161.6169c-0.80005,-2.8269 -3.39014,-4.7782 -6.31995,-4.7782l-42.73004,0c-2.94006,0 -5.52002,1.95679 -6.32007,4.789l-45.60999,162.1371l-42.02002,-162.00761c-0.76001,-2.8963 -3.37,-4.9185 -6.35999,-4.9185l-51.57996,0c-2.04004,0 -3.95996,0.9463 -5.20007,2.5619c-1.25,1.6155 -1.66992,3.7168 -1.1499,5.6872l66.04993,249.51898c0.47009,3.16904 3.20007,5.599 6.5,5.599z"/>
  <path id="svg_7" stroke-linejoin="round" stroke-width="10" stroke="#0891B2" fill="white" d="m1239.89709,9.95589c-3.63,0 -6.57007,2.9407 -6.57007,6.5681l0,250.23119c0,3.62799 2.94006,6.56799 6.57007,6.56799l49.29993,0c3.62988,0 6.57007,-2.94 6.57007,-6.56799l0,-250.23119c0,-3.6274 -2.94019,-6.5681 -6.57007,-6.5681l-49.29993,0z"/>
  <path id="svg_8" fill="white" d="m1464.78687,125.0632c6.78003,2.722 13.69019,5.90599 17.38013,8.263c3.70007,2.396 8.07983,6.12399 12.82983,10.18599c4.75,4.06201 9.82007,9.90201 12.30017,14.20801m-42.51013,-32.657l0.03003,0.013c0,-0.002 0.01001,0.002 0,0m-0.03003,-0.013c0.01001,0.002 0.03003,0.011 0.03003,0.013l-0.03003,-0.013zm0,0c-6.78003,-2.76201 -12.53003,-4.935 -16.46985,-6.235c-3.94006,-1.3 -9.83008,-3.166 -17.46008,-5.563c52.70996,7.448 125.56018,58.537 58.80017,143.28802c16.7699,-13.56703 27.61987,-37.04204 27.61987,-60.15404c0,-7.151 -1.16003,-15.57999 -2.93994,-21.67299c-1.79016,-6.09399 -4.52014,-12.7 -7.04004,-17.006m-42.4801,-32.644c6.98999,2.804 12.61011,5.569 16.77002,8.222l0.05017,0.028c4,2.597 8.45984,5.99699 13.35974,10.18599c5.14014,4.38901 9.3501,9.08301 12.30017,14.20801m-42.4801,-32.644c-6.82007,-2.78 -12.34985,-4.88 -16.49988,-6.248c-3.98999,-1.317 -9.80017,-3.158 -17.43005,-5.554l-0.03003,-0.009c-18.55994,-5.728 -30.15991,-10.783 -35.69995,-14.914c-4.95996,-3.69299 -7.19006,-8.15599 -7.19006,-13.866c0,-5.33099 2,-9.493 6.28015,-12.88699l0.03003,-0.01701c4.30981,-3.44699 10.71973,-5.55099 20.0199,-5.55099c9.84998,0 18.01001,2.39101 24.76001,6.927c6.77991,4.556 12.57007,11.562 17.17004,21.451c0.77979,1.67 2.21997,2.93599 3.97998,3.48999c1.76013,0.554 3.66003,0.345 5.26001,-0.577l41.47009,-23.967c2.97986,-1.724 4.11987,-5.46001 2.61975,-8.55901c-9.05994,-18.631 -21.82007,-33.354 -38.25989,-43.9249c-16.56018,-10.61781 -35.60986,-15.8703 -57,-15.8703c-24.02991,0 -44.92004,7.2051 -62.28003,21.7182c-17.70996,14.804 -26.47986,34.79599 -26.47986,59.188c0,12.187 2.1698,23.215 6.71997,32.827c4.53979,9.62399 11.1499,17.55499 19.78992,23.80299c8.08997,5.845 16.2301,10.56801 24.49011,14.117c8.05981,3.46001 17.77991,6.87399 29.15002,10.25301l0.07971,0.02399c20.1803,5.714 33.4502,10.83501 40.48999,15.18701c6.02014,3.74701 8.67029,8.56299 8.67029,14.97101c0,5.39899 -2.1803,9.88599 -7.14026,13.74799c-4.69995,3.66299 -13.0697,6.13 -26.33984,6.13c-13.32007,0 -23.90991,-2.96399 -32.18994,-8.46802c-8.25,-5.491 -14.7301,-13.85599 -19.22998,-25.58398c-0.69006,-1.79999 -2.13,-3.205 -3.9502,-3.84399c-1.81982,-0.638 -3.82983,-0.44601 -5.48999,0.528l-42.15991,24.657c-2.72998,1.60001 -3.93994,4.92899 -2.86011,7.90799c7.39001,20.38 20.19019,36.595 38.31018,48.46498c17.9198,11.76501 39.73999,17.52103 65.00989,17.68701c0.34998,0.05798 0.69995,0.08704 1.06018,0.08704c28.04968,0 51.46997,-7.13104 69.70996,-21.849c18.42981,-14.91203 27.61987,-35.21803 27.61987,-60.15404c0,-7.70297 -0.95996,-14.91299 -2.93994,-21.67299c-1.89001,-6.44699 -4.19006,-12.12399 -7.04004,-17.006m0,0c0,-0.006 0,0.007 0,0l0,0zm0,0c0,-0.006 0,0.007 0,0l0,0z"/>
  <path id="svg_9" stroke-linejoin="round" stroke-width="10" stroke="#0891B2" d="m1464.78687,125.0632c6.78003,2.722 13.69019,5.90599 17.38013,8.263c3.70007,2.396 8.07983,6.12399 12.82983,10.18599m-30.20996,-18.44899l0.03003,0.013m-0.03003,-0.013c0.01001,0.002 0.03003,0.011 0.03003,0.013m-0.03003,-0.013c-6.78003,-2.76201 -12.53003,-4.935 -16.46985,-6.235m46.67981,24.68399c4.75,4.06201 9.82007,9.90201 12.30017,14.20801m-12.30017,-14.20801c-4.8999,-4.189 -9.35974,-7.58899 -13.35974,-10.18599l-0.05017,-0.028c-4.15991,-2.653 -9.78003,-5.418 -16.77002,-8.222m30.17993,18.43599c5.14014,4.38901 9.3501,9.08301 12.30017,14.20801m0,0c2.5199,4.306 5.24988,10.912 7.04004,17.006m-7.04004,-17.006c2.84998,4.882 5.15002,10.55901 7.04004,17.006m-7.04004,-17.006c0,-0.007 0,0.007 0,0zm-42.4801,-32.644c0,-0.002 0.01001,0.002 0,0zm0,0c-6.82007,-2.78 -12.34985,-4.88 -16.49988,-6.248m0,0c-3.94006,-1.3 -9.83008,-3.166 -17.46008,-5.563m17.46008,5.563c-3.98999,-1.317 -9.80017,-3.158 -17.43005,-5.554l-0.03003,-0.009m0,0c52.70996,7.448 125.56018,58.537 58.80017,143.28802m-58.80017,-143.28802c-18.55994,-5.728 -30.15991,-10.783 -35.69995,-14.914c-4.95996,-3.69299 -7.19006,-8.15599 -7.19006,-13.866c0,-5.33099 2,-9.493 6.28015,-12.88699l0.03003,-0.01701c4.30981,-3.44699 10.71973,-5.55099 20.0199,-5.55099c9.84998,0 18.01001,2.39101 24.76001,6.927c6.77991,4.556 12.57007,11.562 17.17004,21.451c0.77979,1.67 2.21997,2.93599 3.97998,3.48999c1.76013,0.554 3.66003,0.345 5.26001,-0.577l41.47009,-23.967c2.97986,-1.724 4.11987,-5.46001 2.61975,-8.55901c-9.05994,-18.631 -21.82007,-33.354 -38.25989,-43.9249c-16.56018,-10.61781 -35.60986,-15.8703 -57,-15.8703c-24.02991,0 -44.92004,7.2051 -62.28003,21.7182c-17.70996,14.804 -26.47986,34.79599 -26.47986,59.188c0,12.187 2.1698,23.215 6.71997,32.827c4.53979,9.62399 11.1499,17.55499 19.78992,23.80299c8.08997,5.845 16.2301,10.56801 24.49011,14.117c8.05981,3.46001 17.77991,6.87399 29.15002,10.25301l0.07971,0.02399c20.1803,5.714 33.4502,10.83501 40.48999,15.18701c6.02014,3.74701 8.67029,8.56299 8.67029,14.97101c0,5.39899 -2.1803,9.88599 -7.14026,13.74799c-4.69995,3.66299 -13.0697,6.13 -26.33984,6.13c-13.32007,0 -23.90991,-2.96399 -32.18994,-8.46802c-8.25,-5.491 -14.7301,-13.85599 -19.22998,-25.58398c-0.69006,-1.79999 -2.13,-3.205 -3.9502,-3.84399c-1.81982,-0.638 -3.82983,-0.44601 -5.48999,0.528l-42.15991,24.657c-2.72998,1.60001 -3.93994,4.92899 -2.86011,7.90799c7.39001,20.38 20.19019,36.595 38.31018,48.46498c17.9198,11.76501 39.73999,17.52103 65.00989,17.68701c0.34998,0.05798 0.69995,0.08704 1.06018,0.08704c28.04968,0 51.46997,-7.13104 69.70996,-21.849m0,0c16.7699,-13.56703 27.61987,-37.04204 27.61987,-60.15404m-27.61987,60.15404c18.42981,-14.91203 27.61987,-35.21803 27.61987,-60.15404m0,0c0,-7.151 -1.16003,-15.57999 -2.93994,-21.67299m2.93994,21.67299c0,-7.70297 -0.95996,-14.91299 -2.93994,-21.67299"/>
  <path id="svg_10" stroke-linejoin="round" stroke-width="10" stroke="#0891B2" fill="white" d="m1693.08691,212.98518l-98.85986,0l0,-42.96298l88.13989,0c3.62988,0 6.57019,-2.94101 6.57019,-6.56801l0,-46.472c0,-3.627 -2.94031,-6.56799 -6.57019,-6.56799l-88.13989,0l0,-40.119l97.07996,0c3.62012,0 6.56006,-2.94099 6.56006,-6.56799l0,-47.20321c0,-3.6274 -2.93994,-6.5681 -6.56006,-6.5681l-152.94995,0c-3.63,0 -6.57019,2.9407 -6.57019,6.5681l0,250.23119c0,3.62799 2.94019,6.56799 6.57019,6.56799l154.72986,0c3.63025,0 6.57019,-2.94 6.57019,-6.56799l0,-47.20198c0,-3.62802 -2.93994,-6.56802 -6.57019,-6.56802z"/>
  <path id="svg_11" stroke-linejoin="round" stroke-width="10" stroke="#0891B2" fill="white" d="m363.52698,345.29523c0,-3.62903 -2.94,-6.56903 -6.56,-6.56903l-56.01001,0c-3.62799,0 -6.56696,2.94 -6.56696,6.56903l0,9.54999c0,3.62796 2.93896,6.56796 6.56696,6.56796l16.29602,0l0,59.78104c0,3.62799 2.93903,6.56799 6.56598,6.56799l10.19403,0c3.62799,0 6.56702,-2.94 6.56702,-6.56799l0,-59.78104l16.38696,0c3.62,0 6.56,-2.94 6.56,-6.56796l0,-9.54999z"/>
  <path id="svg_12" stroke-linejoin="round" stroke-width="10" stroke="#0891B2" fill="white" d="m431.74701,338.7262c-3.63,0 -6.56006,2.94 -6.56006,6.56903l0,25.62598l-24.57996,0l0,-25.62598c0,-3.62903 -2.93994,-6.56903 -6.56006,-6.56903l-10.32996,0c-3.62,0 -6.56,2.94 -6.56,6.56903l0,75.89899c0,3.62799 2.94,6.56799 6.56,6.56799l10.32996,0c3.62012,0 6.56006,-2.94 6.56006,-6.56799l0,-27.586l24.57996,0l0,27.586c0,3.62799 2.93005,6.56799 6.56006,6.56799l10.19995,0c3.62,0 6.56006,-2.94 6.56006,-6.56799l0,-75.89899c0,-3.62903 -2.94006,-6.56903 -6.56006,-6.56903l-10.19995,0z"/>
  <path id="svg_13" stroke-linejoin="round" stroke-width="10" stroke="#0891B2" fill="white" d="m519.41705,411.64423c0,-3.62903 -2.94006,-6.56805 -6.57007,-6.56805l-29.47998,0l0,-10.92697l26.16003,0c3.62,0 6.55994,-2.94 6.55994,-6.56802l0,-9.42499c0,-3.62799 -2.93994,-6.56799 -6.55994,-6.56799l-26.16003,0l0,-10.17502l28.92993,0c3.62012,0 6.56006,-2.94 6.56006,-6.56796l0,-9.54999c0,-3.62903 -2.93994,-6.56903 -6.56006,-6.56903l-45.81995,0c-3.62,0 -6.55994,2.94 -6.55994,6.56903l0,75.89899c0,3.62799 2.93994,6.56799 6.55994,6.56799l46.37,0c3.63,0 6.57007,-2.94 6.57007,-6.56799l0,-9.54999z"/>
  <path id="svg_14" stroke-linejoin="round" stroke-width="10" stroke="#0891B2" fill="white" d="m641.27704,361.41318c3.62,0 6.55994,-2.94 6.55994,-6.56796l0,-9.54999c0,-3.62903 -2.93994,-6.56903 -6.55994,-6.56903l-44.70007,0c-3.63,0 -6.56995,2.94 -6.56995,6.56903l0,75.89899c0,3.62799 2.93994,6.56799 6.56995,6.56799l10.32007,0c3.62,0 6.55994,-2.94 6.55994,-6.56799l0,-25.62701l26.37,0c3.62,0 6.56006,-2.93903 6.56006,-6.56799l0,-9.54999c0,-3.62799 -2.94006,-6.56802 -6.56006,-6.56802l-26.37,0l0,-11.46802l27.82007,0z"/>
  <path id="svg_15" stroke-linejoin="round" stroke-width="10" stroke="#0891B2" fill="white" d="m663.34698,420.1532c6.87,6.14001 15.54004,8.98602 25.42004,8.98602c9.88,0 18.54993,-2.819 25.34998,-8.99304c6.97998,-6.28699 10.27002,-14.66101 10.27002,-24.43399l0,-50.41696c0,-3.62903 -2.94006,-6.56903 -6.57007,-6.56903l-10.18994,0c-3.63,0 -6.57007,2.94 -6.57007,6.56903l0,50.00195c0,3.90704 -1.13,6.31799 -2.83997,7.97601c-1.71997,1.63202 -4.5,2.88803 -9.44995,2.88803c-4.97998,0 -7.77002,-1.28003 -9.43005,-2.87204c-1.70996,-1.65796 -2.84998,-4.07196 -2.84998,-7.992l0,-50.00195c0,-3.62903 -2.94006,-6.56903 -6.56995,-6.56903l-10.32007,0c-3.63,0 -6.56995,2.94 -6.56995,6.56903l0,50.41696c0,9.80502 3.35999,18.16998 10.31995,24.44101z"/>
  <path id="svg_16" stroke-linejoin="round" stroke-width="10" stroke="#0891B2" fill="white" d="m804.93695,345.29523c0,-3.62903 -2.94995,-6.56903 -6.56995,-6.56903l-56.01001,0c-3.62,0 -6.56006,2.94 -6.56006,6.56903l0,9.54999c0,3.62796 2.94006,6.56796 6.56006,6.56796l16.30005,0l0,59.78104c0,3.62799 2.93994,6.56799 6.56995,6.56799l10.19006,0c3.62988,0 6.56995,-2.94 6.56995,-6.56799l0,-59.78104l16.38,0c3.62,0 6.56995,-2.94 6.56995,-6.56796l0,-9.54999z"/>
  <path id="svg_17" stroke-linejoin="round" stroke-width="10" stroke="#0891B2" fill="white" d="m828.87701,421.69623c6.87,6.13998 15.53003,8.98499 25.41992,8.98499c9.87012,0 18.54004,-2.81903 25.3501,-8.99301c6.96997,-6.28702 10.27002,-14.66 10.27002,-24.43103l0,-50.41995c0,-3.62601 -2.94006,-6.56799 -6.57007,-6.56799l-10.18994,0c-3.63,0 -6.57007,2.94199 -6.57007,6.56799l0,50.00195c0,3.90701 -1.13,6.31903 -2.83997,7.97601c-1.71997,1.63199 -4.51001,2.888 -9.45007,2.888c-4.97998,0 -7.77991,-1.27698 -9.42993,-2.87198c-1.71997,-1.65799 -2.85999,-4.07199 -2.85999,-7.99203l0,-50.00195c0,-3.62601 -2.94006,-6.56799 -6.56006,-6.56799l-10.32996,0c-3.62,0 -6.56006,2.94199 -6.56006,6.56799l0,50.41995c0,9.80502 3.3501,18.16705 10.32007,24.43906z"/>
  <path id="svg_18" stroke-linejoin="round" stroke-width="10" stroke="#0891B2" fill="white" d="m949.32697,427.43622c1.45007,1.42395 3.42004,2.04196 5.33008,1.82599l10.63989,0c2.37012,0 4.55005,-1.27399 5.72009,-3.336c1.15991,-2.06299 1.13,-4.59302 -0.09009,-6.62103l-14.6499,-24.29498c2.90991,-1.95398 5.45996,-4.41101 7.60999,-7.32199c3.78992,-5.14401 5.76001,-10.96603 5.76001,-17.32898c0,-8.29703 -3.07007,-15.54105 -9.08008,-21.35703c-5.96997,-5.78299 -13.27991,-8.73297 -21.63,-8.73297l-31.04993,0c-3.63,0 -6.57007,2.94199 -6.57007,6.56799l0,75.89899c0,3.62802 2.94006,6.56799 6.57007,6.56799l10.31995,0c3.63,0 6.57007,-2.93997 6.57007,-6.56799l0,-22.49701l8.01001,0l15.22998,25.43402c0.31995,0.63098 0.73999,1.21198 1.26001,1.72101l0.04993,0.04199zm-10.39001,-49.427l-14.15991,0l0,-15.177l14.15991,0c2.08008,0 3.67004,0.66699 5.10999,2.14899c1.5,1.53101 2.19006,3.181 2.19006,5.37802c0,2.20697 -0.69995,3.91397 -2.21997,5.496c-1.44006,1.495 -3.01001,2.15399 -5.08008,2.15399z"/>
  <path id="svg_19" stroke-linejoin="round" stroke-width="10" stroke="#0891B2" fill="white" d="m1043.5769,413.18622c0,-3.62604 -2.92981,-6.56799 -6.55994,-6.56799l-29.47992,0l0,-10.92401l26.14984,0c3.63013,0 6.57019,-2.94299 6.57019,-6.56903l0,-9.42596c0,-3.62601 -2.94006,-6.56799 -6.57019,-6.56799l-26.14984,0l0,-10.17603l28.91998,0c3.62988,0 6.57007,-2.94 6.57007,-6.56799l0,-9.54999c0,-3.62601 -2.94019,-6.56799 -6.57007,-6.56799l-45.81,0c-3.63,0 -6.56006,2.94199 -6.56006,6.56799l0,75.89899c0,3.62802 2.93005,6.56799 6.56006,6.56799l46.36993,0c3.63013,0 6.55994,-2.93997 6.55994,-6.56799l0,-9.54999z"/>
  <path id="svg_20" stroke-linejoin="round" stroke-width="10" stroke="#0891B2" fill="white" d="m1100.99707,340.26923c-3.62012,0 -6.57007,2.94199 -6.57007,6.56799l0,75.89899c0,3.62802 2.94995,6.56799 6.57007,6.56799l10.31995,0c3.63,0 6.56995,-2.93997 6.56995,-6.56799l0,-75.89899c0,-3.62601 -2.93994,-6.56799 -6.56995,-6.56799l-10.31995,0z"/>
  <path id="svg_21" stroke-linejoin="round" stroke-width="10" stroke="#0891B2" fill="white" d="m1158.01697,430.68121c0.38013,0 0.75012,-0.03201 1.12,-0.09503c8.57996,-0.18597 16.22998,-2.44797 22.3501,-7.35101c6.58984,-5.27298 9.88989,-12.49799 9.88989,-21.01495c0,-2.17303 -0.30005,-4.14899 -0.66003,-5.85904c-0.38989,-1.88901 -0.94983,-3.50797 -1.45984,-4.80496l-0.09009,-0.203c-0.80994,-1.87802 -1.99011,-3.58899 -3.41992,-5.104c-0.65015,-0.694 -1.40015,-1.45599 -1.97998,-2.039c-0.28003,-0.28101 -0.52002,-0.52301 -0.68018,-0.69101c-1.46985,-1.52899 -3.38989,-2.67203 -5.01001,-3.53403c-1.45984,-0.77496 -2.81982,-1.48395 -3.90002,-1.98596c-1.19983,-0.56 -2.85986,-1.19 -4.74988,-1.85999c-0.36011,-0.13202 -0.72009,-0.26001 -1.06995,-0.38403c-1.31006,-0.46997 -2.47998,-0.88797 -3.35999,-1.16098c-0.47009,-0.14499 -1.04016,-0.34402 -1.86011,-0.62802c-0.6499,-0.229 -1.46008,-0.51196 -2.49988,-0.862l-0.14001,-0.04697c-5.90015,-1.85501 -9.23999,-3.39401 -10.76013,-4.48502c-0.46985,-0.33899 -0.60999,-0.578 -0.68994,-0.72504c-0.08008,-0.16797 -0.24011,-0.59598 -0.24011,-1.534c0,-1.59796 0.46021,-2.35394 1.31006,-3.008l0.1001,-0.07397c1.06995,-0.85699 2.89001,-1.61102 6.09998,-1.61102c3.15002,0 5.3999,0.72601 7.07007,1.83704c1.67981,1.11401 3.23999,2.93201 4.49988,5.89301c0.7301,1.716 2.16003,3.04199 3.92993,3.64099c1.77002,0.599 3.71008,0.42096 5.34009,-0.49603l8.6499,-4.87897c2.97009,-1.67102 4.17017,-5.32803 2.76001,-8.42801c-2.77002,-6.13498 -6.98999,-11.09299 -12.56982,-14.81302c-5.78003,-3.854 -12.42017,-5.64899 -19.68005,-5.64899c-8.15002,0 -15.43005,2.32602 -21.4801,7.28302c-6.3999,5.23596 -9.48999,12.38501 -9.48999,20.76398c0,3.58002 0.67004,6.97803 2.08008,10.08801c1.22009,2.70398 2.73999,5.07602 4.52991,7.01196l0.08008,0.08203c1.96008,2.04102 4.52991,3.78802 7.56995,5.27301c2.68005,1.31097 5.09009,2.35898 7.16016,3.06598l0.0498,0.01599c0.85999,0.289 1.72021,0.58304 2.72998,0.922c1.26001,0.42804 2.73022,0.927 4.68018,1.57901l0.13,0.04202c6.47986,2.01501 10.45984,3.72498 12.49988,5.02301c0.70996,0.452 1.19006,1.02698 1.19006,2.59296c0,1.495 -0.45007,2.38904 -1.62,3.26599c-1.24011,0.93805 -3.67993,1.88403 -8.24011,1.88403c-4.48987,0 -7.5498,-0.95099 -9.64001,-2.34399c-2.03979,-1.35001 -3.71997,-3.478 -4.84985,-6.909c-0.62012,-1.86603 -2.03992,-3.35803 -3.87012,-4.065c-1.82983,-0.70901 -3.87988,-0.56198 -5.58984,0.40497l-8.88,5.00201c-2.79016,1.57599 -4.03003,4.93402 -2.95007,7.95001c2.57007,7.13098 7.06006,12.83997 13.44995,16.96698c6.40015,4.13501 13.87,6.05603 22.16003,6.05603z"/>
  <path id="svg_22" stroke-linejoin="round" stroke-width="10" stroke="#0891B2" fill="white" d="m1287.17688,340.26923c-3.62,0 -6.55981,2.94199 -6.55981,6.56799l0,36.327l-28.33997,-40.116c-1.2301,-1.742 -3.2301,-2.77899 -5.36011,-2.77899l-7.97998,0c-3.63,0 -6.57007,2.94199 -6.57007,6.56799l0,75.89899c0,3.62802 2.94006,6.56799 6.57007,6.56799l10.32007,0c3.62988,0 6.56982,-2.93997 6.56982,-6.56799l0,-35.97803l27.98999,39.75903c1.2301,1.75 3.2301,2.78699 5.37,2.78699l8.31018,0c3.62988,0 6.56982,-2.93997 6.56982,-6.56799l0,-75.89899c0,-3.62601 -2.93994,-6.56799 -6.56982,-6.56799l-10.32019,0z"/>
  <path id="svg_23" stroke-linejoin="round" stroke-width="10" stroke="#0891B2" fill="white" d="m1361.83691,430.59717c12.89001,0 24.07019,-4.47998 33.14014,-13.39398c9.05994,-8.901 13.65002,-19.76001 13.65002,-32.54102c0,-12.75598 -4.58008,-23.75598 -13.66016,-32.63898c-9.02991,-8.82797 -20.25,-13.297 -33.13,-13.297c-12.87,0 -24.0498,4.42203 -33.08984,13.31003c-9.04016,8.88599 -13.61011,19.965 -13.61011,32.62595c0,12.68701 4.58997,23.62701 13.58997,32.53104c9.04016,8.927 20.22009,13.40396 33.10999,13.40396zm0,-23.01996c-6.91003,0 -12.33984,-2.22803 -16.73999,-6.60303c-4.43982,-4.39801 -6.63989,-9.62601 -6.63989,-16.31201c0,-6.71295 2.21985,-12.052 6.62988,-16.43097c4.45996,-4.388 9.90002,-6.61102 16.75,-6.61102c6.87,0 12.29004,2.22803 16.7002,6.60303c4.40991,4.37396 6.63977,9.797 6.63977,16.43896c0,6.612 -2.20996,11.92004 -6.63977,16.31201c-4.41016,4.38004 -9.80017,6.60303 -16.7002,6.60303z"/>
  <path id="svg_24" stroke-linejoin="round" stroke-width="10" stroke="#0891B2" fill="white" d="m1419.85693,423.00122c0.81006,2.81696 3.38989,4.76099 6.32007,4.76099l12.45007,0c2.88977,0 5.43982,-1.89203 6.28992,-4.65802l12.17993,-40.11902l12.18994,40.11902c0.84009,2.76599 3.39026,4.65802 6.28003,4.65802l11.98999,0c2.93005,0 5.51001,-1.94403 6.31018,-4.76599l21.6698,-75.89902c0.57019,-1.98099 0.17017,-4.11203 -1.06982,-5.75897c-1.23999,-1.64502 -3.18018,-2.61203 -5.23999,-2.61203l-10.27991,0c-2.94031,0 -5.52014,1.95001 -6.32007,4.77399l-11.62024,40.90399l-12.37976,-41.00598c-0.8302,-2.77502 -3.39014,-4.672 -6.28015,-4.672l-10.40979,0c-2.90015,0 -5.4502,1.89697 -6.29004,4.672l-12.38025,41.03198l-11.64978,-40.935c-0.81018,-2.82196 -3.39001,-4.76898 -6.32007,-4.76898l-10.83984,0c-2.05017,0 -4.00012,0.96701 -5.24011,2.61499c-1.23999,1.64398 -1.63013,3.77802 -1.07007,5.76099l21.70996,75.89905z"/>
 </g>
</svg>