<svg width="2364" height="578" viewBox="0 0 2364 578" fill="none" xmlns="http://www.w3.org/2000/svg">
<path d="M907.59 91.5928C907.59 87.9654 904.648 85.0247 901.023 85.0247H850.053C847.754 85.0247 845.621 86.2282 844.431 88.1971L778.683 197.082L712.589 88.1845C711.396 86.2227 709.268 85.0247 706.975 85.0247H656.21C652.582 85.0247 649.643 87.9654 649.643 91.5928V341.824C649.643 345.452 652.582 348.392 656.21 348.392H705.512C709.14 348.392 712.079 345.452 712.079 341.824V203.625L770.118 299.249C771.352 301.28 773.588 302.488 775.962 302.404L781.73 302.202C783.939 302.123 785.962 300.938 787.11 299.049L845.477 202.993V341.824C845.477 345.452 848.416 348.392 852.044 348.392H901.023C904.648 348.392 907.59 345.452 907.59 341.824V91.5928Z" fill="white" stroke="#0891B2" stroke-width="10" stroke-linejoin="round"/>
<path d="M947.483 85.0247C943.856 85.0247 940.917 87.9654 940.917 91.5928V341.824C940.917 345.452 943.856 348.392 947.483 348.392H996.786C1000.41 348.392 1003.35 345.452 1003.35 341.824V91.5928C1003.35 87.9654 1000.41 85.0247 996.786 85.0247H947.483Z" fill="white" stroke="#0891B2" stroke-width="10" stroke-linejoin="round"/>
<path d="M1187.99 85.0247C1184.36 85.0247 1181.42 87.9654 1181.42 91.5928V223.3L1086.1 87.813C1084.87 86.0648 1082.87 85.0247 1080.73 85.0247H1043.25C1039.62 85.0247 1036.68 87.9654 1036.68 91.5928V341.824C1036.68 345.452 1039.62 348.392 1043.25 348.392H1092.55C1096.18 348.392 1099.12 345.452 1099.12 341.824V209.654L1194.39 345.594C1195.62 347.349 1197.63 348.392 1199.77 348.392H1237.29C1240.92 348.392 1243.86 345.452 1243.86 341.824V91.5928C1243.86 87.9654 1240.92 85.0247 1237.29 85.0247H1187.99Z" fill="white" stroke="#0891B2" stroke-width="10" stroke-linejoin="round"/>
<path d="M1277.23 341.824C1277.23 345.452 1280.17 348.392 1283.8 348.392H1383.13C1419.14 348.392 1449.55 335.679 1473.82 310.247C1498.05 284.896 1510.12 253.544 1510.12 216.709C1510.12 179.868 1498.05 148.558 1473.82 123.171C1449.55 97.738 1419.18 85.0247 1383.13 85.0247H1283.8C1280.17 85.0247 1277.23 87.9654 1277.23 91.5928V341.824ZM1383.13 288.054C1382.88 288.054 1382.64 288.067 1382.4 288.094H1339.67V145.364H1383.13C1403.17 145.364 1419.04 151.944 1431.23 164.907C1443.49 177.906 1449.83 194.969 1449.83 216.709C1449.83 238.44 1443.46 255.503 1431.23 268.51C1419.03 281.476 1403.21 288.054 1383.13 288.054Z" fill="white" stroke="#0891B2" stroke-width="10" stroke-linejoin="round"/>
<path d="M1575.84 348.392H1575.88H1635.3C1638.23 348.392 1640.81 346.443 1641.61 343.616L1682.39 199.8L1723.45 343.629C1724.25 346.448 1726.83 348.392 1729.76 348.392H1785.89C1788.87 348.392 1791.48 346.38 1792.24 343.495L1857.99 93.2625C1858.51 91.2928 1858.08 89.1947 1856.84 87.582C1855.6 85.9694 1853.68 85.0247 1851.64 85.0247H1804.12C1801.13 85.0247 1798.51 87.0555 1797.76 89.9603L1756.34 251.42L1710.58 89.8031C1709.78 86.9762 1707.19 85.0247 1704.26 85.0247H1661.53C1658.59 85.0247 1656.01 86.9815 1655.21 89.8139L1609.6 251.951L1567.58 89.9432C1566.82 87.0471 1564.21 85.0247 1561.22 85.0247H1509.64C1507.6 85.0247 1505.68 85.9713 1504.44 87.5868C1503.19 89.2023 1502.77 91.3033 1503.29 93.274L1569.34 342.793C1569.81 345.962 1572.54 348.392 1575.84 348.392Z" fill="white" stroke="#0891B2" stroke-width="10" stroke-linejoin="round"/>
<path d="M1575.84 348.392H1575.88H1635.3C1638.23 348.392 1640.81 346.443 1641.61 343.616L1682.39 199.8L1723.45 343.629C1724.25 346.448 1726.83 348.392 1729.76 348.392H1785.89C1788.87 348.392 1791.48 346.38 1792.24 343.495L1857.99 93.2625C1858.51 91.293 1858.08 89.1946 1856.84 87.582C1855.6 85.9694 1853.68 85.0249 1851.64 85.0249H1804.12C1801.13 85.0249 1798.51 87.0558 1797.76 89.9602L1756.34 251.42L1710.58 89.8031C1709.78 86.9762 1707.19 85.0249 1704.26 85.0249H1661.53C1658.59 85.0249 1656.01 86.9817 1655.21 89.8139L1609.6 251.951L1567.58 89.9434C1566.82 87.0471 1564.21 85.0249 1561.22 85.0249H1509.64C1507.6 85.0249 1505.68 85.9712 1504.44 87.5868C1503.19 89.2023 1502.77 91.3036 1503.29 93.274L1569.34 342.793C1569.81 345.962 1572.54 348.392 1575.84 348.392Z" fill="white" stroke="#0891B2" stroke-width="10" stroke-linejoin="round"/>
<path d="M1884.54 85.0247C1880.91 85.0247 1877.97 87.9654 1877.97 91.5928V341.824C1877.97 345.452 1880.91 348.392 1884.54 348.392H1933.84C1937.47 348.392 1940.41 345.452 1940.41 341.824V91.5928C1940.41 87.9654 1937.47 85.0247 1933.84 85.0247H1884.54Z" fill="white" stroke="#0891B2" stroke-width="10" stroke-linejoin="round"/>
<path d="M2109.43 200.132C2116.21 202.854 2123.12 206.038 2126.81 208.395C2130.51 210.791 2134.89 214.519 2139.64 218.581C2144.39 222.643 2149.46 228.483 2151.94 232.789M2109.43 200.132L2109.46 200.145C2109.46 200.143 2109.47 200.147 2109.46 200.145M2109.43 200.132C2109.44 200.134 2109.46 200.143 2109.46 200.145L2109.43 200.132ZM2109.43 200.132C2102.65 197.37 2096.9 195.197 2092.96 193.897C2089.02 192.597 2083.13 190.731 2075.5 188.334C2128.21 195.782 2201.06 246.871 2134.3 331.622C2151.07 318.055 2161.92 294.58 2161.92 271.468C2161.92 264.317 2160.76 255.888 2158.98 249.795C2157.19 243.701 2154.46 237.095 2151.94 232.789M2109.46 200.145C2116.45 202.949 2122.07 205.714 2126.23 208.367L2126.28 208.395C2130.28 210.992 2134.74 214.392 2139.64 218.581C2144.78 222.97 2148.99 227.664 2151.94 232.789M2109.46 200.145C2102.64 197.365 2097.11 195.265 2092.96 193.897C2088.97 192.58 2083.16 190.739 2075.53 188.343L2075.5 188.334C2056.94 182.606 2045.34 177.551 2039.8 173.42C2034.84 169.727 2032.61 165.264 2032.61 159.554C2032.61 154.223 2034.61 150.061 2038.89 146.667L2038.92 146.65C2043.23 143.203 2049.64 141.099 2058.94 141.099C2068.79 141.099 2076.95 143.49 2083.7 148.026C2090.48 152.582 2096.27 159.588 2100.87 169.477C2101.65 171.147 2103.09 172.413 2104.85 172.967C2106.61 173.521 2108.51 173.312 2110.11 172.39L2151.58 148.423C2154.56 146.699 2155.7 142.963 2154.2 139.864C2145.14 121.233 2132.38 106.51 2115.94 95.9391C2099.38 85.3213 2080.33 80.0688 2058.94 80.0688C2034.91 80.0688 2014.02 87.2739 1996.66 101.787C1978.95 116.591 1970.18 136.583 1970.18 160.975C1970.18 173.162 1972.35 184.19 1976.9 193.802C1981.44 203.426 1988.05 211.357 1996.69 217.605C2004.78 223.45 2012.92 228.173 2021.18 231.722C2029.24 235.182 2038.96 238.596 2050.33 241.975L2050.41 241.999C2070.59 247.713 2083.86 252.834 2090.9 257.186C2096.92 260.933 2099.57 265.749 2099.57 272.157C2099.57 277.556 2097.39 282.043 2092.43 285.905C2087.73 289.568 2079.36 292.035 2066.09 292.035C2052.77 292.035 2042.18 289.071 2033.9 283.567C2025.65 278.076 2019.17 269.711 2014.67 257.983C2013.98 256.183 2012.54 254.778 2010.72 254.139C2008.9 253.501 2006.89 253.693 2005.23 254.667L1963.07 279.324C1960.34 280.924 1959.13 284.253 1960.21 287.232C1967.6 307.612 1980.4 323.827 1998.52 335.697C2016.44 347.462 2038.26 353.218 2063.53 353.384C2063.88 353.442 2064.23 353.471 2064.59 353.471C2092.64 353.471 2116.06 346.34 2134.3 331.622C2152.73 316.71 2161.92 296.404 2161.92 271.468C2161.92 263.765 2160.96 256.555 2158.98 249.795C2157.09 243.348 2154.79 237.671 2151.94 232.789M2151.94 232.789C2151.94 232.783 2151.94 232.796 2151.94 232.789V232.789ZM2151.94 232.789C2151.94 232.783 2151.94 232.796 2151.94 232.789V232.789Z" fill="white"/>
<path d="M2109.43 200.132C2116.21 202.854 2123.12 206.038 2126.81 208.395C2130.51 210.791 2134.89 214.519 2139.64 218.581M2109.43 200.132L2109.46 200.145M2109.43 200.132C2109.44 200.134 2109.46 200.143 2109.46 200.145M2109.43 200.132C2102.65 197.37 2096.9 195.197 2092.96 193.897M2139.64 218.581C2144.39 222.643 2149.46 228.483 2151.94 232.789M2139.64 218.581C2134.74 214.392 2130.28 210.992 2126.28 208.395L2126.23 208.367C2122.07 205.714 2116.45 202.949 2109.46 200.145M2139.64 218.581C2144.78 222.97 2148.99 227.664 2151.94 232.789M2151.94 232.789C2154.46 237.095 2157.19 243.701 2158.98 249.795M2151.94 232.789C2154.79 237.671 2157.09 243.348 2158.98 249.795M2151.94 232.789C2151.94 232.782 2151.94 232.796 2151.94 232.789ZM2109.46 200.145C2109.46 200.143 2109.47 200.147 2109.46 200.145ZM2109.46 200.145C2102.64 197.365 2097.11 195.265 2092.96 193.897M2092.96 193.897C2089.02 192.597 2083.13 190.731 2075.5 188.334M2092.96 193.897C2088.97 192.58 2083.16 190.739 2075.53 188.343L2075.5 188.334M2075.5 188.334C2128.21 195.782 2201.06 246.871 2134.3 331.622M2075.5 188.334C2056.94 182.606 2045.34 177.551 2039.8 173.42C2034.84 169.727 2032.61 165.264 2032.61 159.554C2032.61 154.223 2034.61 150.061 2038.89 146.667L2038.92 146.65C2043.23 143.203 2049.64 141.099 2058.94 141.099C2068.79 141.099 2076.95 143.49 2083.7 148.026C2090.48 152.582 2096.27 159.588 2100.87 169.477C2101.65 171.147 2103.09 172.413 2104.85 172.967C2106.61 173.521 2108.51 173.312 2110.11 172.39L2151.58 148.423C2154.56 146.699 2155.7 142.963 2154.2 139.864C2145.14 121.233 2132.38 106.51 2115.94 95.9391C2099.38 85.3213 2080.33 80.0688 2058.94 80.0688C2034.91 80.0688 2014.02 87.2739 1996.66 101.787C1978.95 116.591 1970.18 136.583 1970.18 160.975C1970.18 173.162 1972.35 184.19 1976.9 193.802C1981.44 203.426 1988.05 211.357 1996.69 217.605C2004.78 223.45 2012.92 228.173 2021.18 231.722C2029.24 235.182 2038.96 238.596 2050.33 241.975L2050.41 241.999C2070.59 247.713 2083.86 252.834 2090.9 257.186C2096.92 260.933 2099.57 265.749 2099.57 272.157C2099.57 277.556 2097.39 282.043 2092.43 285.905C2087.73 289.568 2079.36 292.035 2066.09 292.035C2052.77 292.035 2042.18 289.071 2033.9 283.567C2025.65 278.076 2019.17 269.711 2014.67 257.983C2013.98 256.183 2012.54 254.778 2010.72 254.139C2008.9 253.501 2006.89 253.693 2005.23 254.667L1963.07 279.324C1960.34 280.924 1959.13 284.253 1960.21 287.232C1967.6 307.612 1980.4 323.827 1998.52 335.697C2016.44 347.462 2038.26 353.218 2063.53 353.384C2063.88 353.442 2064.23 353.471 2064.59 353.471C2092.64 353.471 2116.06 346.34 2134.3 331.622M2134.3 331.622C2151.07 318.055 2161.92 294.58 2161.92 271.468M2134.3 331.622C2152.73 316.71 2161.92 296.404 2161.92 271.468M2161.92 271.468C2161.92 264.317 2160.76 255.888 2158.98 249.795M2161.92 271.468C2161.92 263.765 2160.96 256.555 2158.98 249.795" stroke="#0891B2" stroke-width="10" stroke-linejoin="round"/>
<path d="M2337.73 288.054H2238.87V245.091H2327.01C2330.64 245.091 2333.58 242.15 2333.58 238.523V192.051C2333.58 188.424 2330.64 185.483 2327.01 185.483H2238.87V145.364H2335.95C2339.57 145.364 2342.51 142.423 2342.51 138.796V91.5928C2342.51 87.9654 2339.57 85.0247 2335.95 85.0247H2183C2179.37 85.0247 2176.43 87.9654 2176.43 91.5928V341.824C2176.43 345.452 2179.37 348.392 2183 348.392H2337.73C2341.36 348.392 2344.3 345.452 2344.3 341.824V294.622C2344.3 290.994 2341.36 288.054 2337.73 288.054Z" fill="white" stroke="#0891B2" stroke-width="10" stroke-linejoin="round"/>
<path d="M1008.17 420.364C1008.17 416.735 1005.23 413.795 1001.61 413.795H945.6C941.972 413.795 939.033 416.735 939.033 420.364V429.914C939.033 433.542 941.972 436.482 945.6 436.482H961.896V496.263C961.896 499.891 964.835 502.831 968.462 502.831H978.656C982.284 502.831 985.223 499.891 985.223 496.263V436.482H1001.61C1005.23 436.482 1008.17 433.542 1008.17 429.914V420.364Z" fill="white" stroke="#0891B2" stroke-width="10" stroke-linejoin="round"/>
<path d="M1076.39 413.795C1072.76 413.795 1069.83 416.735 1069.83 420.364V445.99H1045.25V420.364C1045.25 416.735 1042.31 413.795 1038.69 413.795H1028.36C1024.74 413.795 1021.8 416.735 1021.8 420.364V496.263C1021.8 499.891 1024.74 502.831 1028.36 502.831H1038.69C1042.31 502.831 1045.25 499.891 1045.25 496.263V468.677H1069.83V496.263C1069.83 499.891 1072.76 502.831 1076.39 502.831H1086.59C1090.21 502.831 1093.15 499.891 1093.15 496.263V420.364C1093.15 416.735 1090.21 413.795 1086.59 413.795H1076.39Z" fill="white" stroke="#0891B2" stroke-width="10" stroke-linejoin="round"/>
<path d="M1164.06 486.713C1164.06 483.084 1161.12 480.145 1157.49 480.145H1128.01V469.218H1154.17C1157.79 469.218 1160.73 466.278 1160.73 462.65V453.225C1160.73 449.597 1157.79 446.657 1154.17 446.657H1128.01V436.482H1156.94C1160.56 436.482 1163.5 433.542 1163.5 429.914V420.364C1163.5 416.735 1160.56 413.795 1156.94 413.795H1111.12C1107.5 413.795 1104.56 416.735 1104.56 420.364V496.263C1104.56 499.891 1107.5 502.831 1111.12 502.831H1157.49C1161.12 502.831 1164.06 499.891 1164.06 496.263V486.713Z" fill="white" stroke="#0891B2" stroke-width="10" stroke-linejoin="round"/>
<path d="M1285.92 436.482C1289.54 436.482 1292.48 433.542 1292.48 429.914V420.364C1292.48 416.735 1289.54 413.795 1285.92 413.795H1241.22C1237.59 413.795 1234.65 416.735 1234.65 420.364V496.263C1234.65 499.891 1237.59 502.831 1241.22 502.831H1251.54C1255.16 502.831 1258.1 499.891 1258.1 496.263V470.636H1284.47C1288.09 470.636 1291.03 467.697 1291.03 464.068V454.518C1291.03 450.89 1288.09 447.95 1284.47 447.95H1258.1V436.482H1285.92Z" fill="white" stroke="#0891B2" stroke-width="10" stroke-linejoin="round"/>
<path d="M1307.99 495.222C1314.86 501.362 1323.53 504.208 1333.41 504.208C1343.29 504.208 1351.96 501.389 1358.76 495.215C1365.74 488.928 1369.03 480.554 1369.03 470.781V420.364C1369.03 416.735 1366.09 413.795 1362.46 413.795H1352.27C1348.64 413.795 1345.7 416.735 1345.7 420.364V470.366C1345.7 474.273 1344.57 476.684 1342.86 478.342C1341.14 479.974 1338.36 481.23 1333.41 481.23C1328.43 481.23 1325.64 479.95 1323.98 478.358C1322.27 476.7 1321.13 474.286 1321.13 470.366V420.364C1321.13 416.735 1318.19 413.795 1314.56 413.795H1304.24C1300.61 413.795 1297.67 416.735 1297.67 420.364V470.781C1297.67 480.586 1301.03 488.951 1307.99 495.222Z" fill="white" stroke="#0891B2" stroke-width="10" stroke-linejoin="round"/>
<path d="M1449.58 420.364C1449.58 416.735 1446.63 413.795 1443.01 413.795H1387C1383.38 413.795 1380.44 416.735 1380.44 420.364V429.914C1380.44 433.542 1383.38 436.482 1387 436.482H1403.3V496.263C1403.3 499.891 1406.24 502.831 1409.87 502.831H1420.06C1423.69 502.831 1426.63 499.891 1426.63 496.263V436.482H1443.01C1446.63 436.482 1449.58 433.542 1449.58 429.914V420.364Z" fill="white" stroke="#0891B2" stroke-width="10" stroke-linejoin="round"/>
<path d="M1473.52 496.765C1480.39 502.905 1489.05 505.75 1498.94 505.75C1508.81 505.75 1517.48 502.931 1524.29 496.757C1531.26 490.47 1534.56 482.097 1534.56 472.326V421.906C1534.56 418.28 1531.62 415.338 1527.99 415.338H1517.8C1514.17 415.338 1511.23 418.28 1511.23 421.906V471.908C1511.23 475.815 1510.1 478.227 1508.39 479.884C1506.67 481.516 1503.88 482.772 1498.94 482.772C1493.96 482.772 1491.16 481.495 1489.51 479.9C1487.79 478.242 1486.65 475.828 1486.65 471.908V421.906C1486.65 418.28 1483.71 415.338 1480.09 415.338H1469.76C1466.14 415.338 1463.2 418.28 1463.2 421.906V472.326C1463.2 482.131 1466.55 490.493 1473.52 496.765Z" fill="white" stroke="#0891B2" stroke-width="10" stroke-linejoin="round"/>
<path d="M1593.97 502.505C1595.42 503.929 1597.39 504.547 1599.3 504.331H1609.94C1612.31 504.331 1614.49 503.057 1615.66 500.995C1616.82 498.932 1616.79 496.402 1615.57 494.374L1600.92 470.079C1603.83 468.125 1606.38 465.668 1608.53 462.757C1612.32 457.613 1614.29 451.791 1614.29 445.428C1614.29 437.131 1611.22 429.887 1605.21 424.071C1599.24 418.288 1591.93 415.338 1583.58 415.338H1552.53C1548.9 415.338 1545.96 418.28 1545.96 421.906V497.805C1545.96 501.433 1548.9 504.373 1552.53 504.373H1562.85C1566.48 504.373 1569.42 501.433 1569.42 497.805V475.308H1577.43L1592.66 500.742C1592.98 501.373 1593.4 501.954 1593.92 502.463L1593.97 502.505ZM1583.58 453.078H1569.42V437.901H1583.58C1585.66 437.901 1587.25 438.568 1588.69 440.05C1590.19 441.581 1590.88 443.231 1590.88 445.428C1590.88 447.635 1590.18 449.342 1588.66 450.924C1587.22 452.419 1585.65 453.078 1583.58 453.078Z" fill="white" stroke="#0891B2" stroke-width="10" stroke-linejoin="round"/>
<path d="M1688.22 488.255C1688.22 484.629 1685.29 481.687 1681.66 481.687H1652.18V470.763H1678.33C1681.96 470.763 1684.9 467.82 1684.9 464.194V454.768C1684.9 451.142 1681.96 448.2 1678.33 448.2H1652.18V438.024H1681.1C1684.73 438.024 1687.67 435.084 1687.67 431.456V421.906C1687.67 418.28 1684.73 415.338 1681.1 415.338H1635.29C1631.66 415.338 1628.73 418.28 1628.73 421.906V497.805C1628.73 501.433 1631.66 504.373 1635.29 504.373H1681.66C1685.29 504.373 1688.22 501.433 1688.22 497.805V488.255Z" fill="white" stroke="#0891B2" stroke-width="10" stroke-linejoin="round"/>
<path d="M1745.64 415.338C1742.02 415.338 1739.07 418.28 1739.07 421.906V497.805C1739.07 501.433 1742.02 504.373 1745.64 504.373H1755.96C1759.59 504.373 1762.53 501.433 1762.53 497.805V421.906C1762.53 418.28 1759.59 415.338 1755.96 415.338H1745.64Z" fill="white" stroke="#0891B2" stroke-width="10" stroke-linejoin="round"/>
<path d="M1802.66 505.75C1803.04 505.75 1803.41 505.718 1803.78 505.655C1812.36 505.469 1820.01 503.207 1826.13 498.304C1832.72 493.031 1836.02 485.806 1836.02 477.289C1836.02 475.116 1835.72 473.14 1835.36 471.43C1834.97 469.541 1834.41 467.922 1833.9 466.625L1833.81 466.422C1833 464.544 1831.82 462.833 1830.39 461.318C1829.74 460.624 1828.99 459.862 1828.41 459.279C1828.13 458.998 1827.89 458.756 1827.73 458.588C1826.26 457.059 1824.34 455.916 1822.72 455.054C1821.26 454.279 1819.9 453.57 1818.82 453.068C1817.62 452.508 1815.96 451.878 1814.07 451.208C1813.71 451.076 1813.35 450.948 1813 450.824C1811.69 450.354 1810.52 449.936 1809.64 449.663C1809.17 449.518 1808.6 449.319 1807.78 449.035C1807.13 448.806 1806.32 448.523 1805.28 448.173L1805.14 448.126C1799.24 446.271 1795.9 444.732 1794.38 443.641C1793.91 443.302 1793.77 443.063 1793.69 442.916C1793.61 442.748 1793.45 442.32 1793.45 441.382C1793.45 439.784 1793.91 439.028 1794.76 438.374L1794.86 438.3C1795.93 437.443 1797.75 436.689 1800.96 436.689C1804.11 436.689 1806.36 437.415 1808.03 438.526C1809.71 439.64 1811.27 441.458 1812.53 444.419C1813.26 446.135 1814.69 447.461 1816.46 448.06C1818.23 448.659 1820.17 448.481 1821.8 447.564L1830.45 442.685C1833.42 441.014 1834.62 437.357 1833.21 434.257C1830.44 428.122 1826.22 423.164 1820.64 419.444C1814.86 415.59 1808.22 413.795 1800.96 413.795C1792.81 413.795 1785.53 416.121 1779.48 421.078C1773.08 426.314 1769.99 433.463 1769.99 441.842C1769.99 445.422 1770.66 448.82 1772.07 451.93C1773.29 454.634 1774.81 457.006 1776.6 458.942L1776.68 459.024C1778.64 461.065 1781.21 462.812 1784.25 464.297C1786.93 465.608 1789.34 466.656 1791.41 467.363L1791.46 467.379C1792.32 467.668 1793.18 467.962 1794.19 468.301C1795.45 468.729 1796.92 469.228 1798.87 469.88L1799 469.922C1805.48 471.937 1809.46 473.647 1811.5 474.945C1812.21 475.397 1812.69 475.972 1812.69 477.538C1812.69 479.033 1812.24 479.927 1811.07 480.804C1809.83 481.742 1807.39 482.688 1802.83 482.688C1798.34 482.688 1795.28 481.737 1793.19 480.344C1791.15 478.994 1789.47 476.866 1788.34 473.435C1787.72 471.569 1786.3 470.077 1784.47 469.37C1782.64 468.661 1780.59 468.808 1778.88 469.775L1770 474.777C1767.21 476.353 1765.97 479.711 1767.05 482.727C1769.62 489.858 1774.11 495.567 1780.5 499.694C1786.9 503.829 1794.37 505.75 1802.66 505.75Z" fill="white" stroke="#0891B2" stroke-width="10" stroke-linejoin="round"/>
<path d="M1931.82 415.338C1928.2 415.338 1925.26 418.28 1925.26 421.906V458.233L1896.92 418.117C1895.69 416.375 1893.69 415.338 1891.56 415.338H1883.58C1879.95 415.338 1877.01 418.28 1877.01 421.906V497.805C1877.01 501.433 1879.95 504.373 1883.58 504.373H1893.9C1897.53 504.373 1900.47 501.433 1900.47 497.805V461.827L1928.46 501.586C1929.69 503.336 1931.69 504.373 1933.83 504.373H1942.14C1945.77 504.373 1948.71 501.433 1948.71 497.805V421.906C1948.71 418.28 1945.77 415.338 1942.14 415.338H1931.82Z" fill="white" stroke="#0891B2" stroke-width="10" stroke-linejoin="round"/>
<path d="M2006.48 505.666C2019.37 505.666 2030.55 501.186 2039.62 492.272C2048.68 483.371 2053.27 472.512 2053.27 459.731C2053.27 446.975 2048.69 435.975 2039.61 427.092C2030.58 418.264 2019.36 413.795 2006.48 413.795C1993.61 413.795 1982.43 418.217 1973.39 427.105C1964.35 435.991 1959.78 447.07 1959.78 459.731C1959.78 472.418 1964.37 483.358 1973.37 492.262C1982.41 501.189 1993.59 505.666 2006.48 505.666ZM2006.48 482.646C1999.57 482.646 1994.14 480.418 1989.74 476.043C1985.3 471.645 1983.1 466.417 1983.1 459.731C1983.1 453.018 1985.32 447.679 1989.73 443.3C1994.19 438.912 1999.63 436.689 2006.48 436.689C2013.35 436.689 2018.77 438.917 2023.18 443.292C2027.59 447.666 2029.82 453.089 2029.82 459.731C2029.82 466.343 2027.61 471.651 2023.18 476.043C2018.77 480.423 2013.38 482.646 2006.48 482.646Z" fill="white" stroke="#0891B2" stroke-width="10" stroke-linejoin="round"/>
<path d="M2064.5 498.07C2065.31 500.887 2067.89 502.831 2070.82 502.831H2083.27C2086.16 502.831 2088.71 500.939 2089.56 498.173L2101.74 458.054L2113.93 498.173C2114.77 500.939 2117.32 502.831 2120.21 502.831H2132.2C2135.13 502.831 2137.71 500.887 2138.51 498.065L2160.18 422.166C2160.75 420.185 2160.35 418.054 2159.11 416.407C2157.87 414.762 2155.93 413.795 2153.87 413.795H2143.59C2140.65 413.795 2138.07 415.745 2137.27 418.569L2125.65 459.473L2113.27 418.467C2112.44 415.692 2109.88 413.795 2106.99 413.795H2096.58C2093.68 413.795 2091.13 415.692 2090.29 418.467L2077.91 459.499L2066.26 418.564C2065.45 415.742 2062.87 413.795 2059.94 413.795H2049.1C2047.05 413.795 2045.1 414.762 2043.86 416.41C2042.62 418.054 2042.23 420.188 2042.79 422.171L2064.5 498.07Z" fill="white" stroke="#0891B2" stroke-width="10" stroke-linejoin="round"/>
<path d="M528.848 220.056C528.596 220.027 528.338 220.012 528.076 220.012C511.375 220.012 496.093 226.076 484.307 236.141L418.596 189.715C421.451 182.272 423.08 174.166 423.08 165.687C423.08 128.425 392.849 98.1862 355.595 98.1862C330.889 98.1862 309.324 111.495 297.588 131.325L154.628 89.5493C154.657 88.7898 154.671 88.0224 154.671 87.2463C154.671 49.9461 124.442 19.7046 87.1856 19.7046C49.9316 19.7046 19.7 49.9432 19.7 87.2058C19.7 124.468 49.9316 154.707 87.1856 154.707C97.5709 154.707 107.39 152.328 116.175 148.112L181.402 226.395L139.828 245.256C127.458 229.869 108.488 220.012 87.1856 220.012C49.9316 220.012 19.7 250.25 19.7 287.513C19.7 324.776 49.9316 355.013 87.1856 355.013C108.488 355.013 127.458 345.155 139.828 329.77L181.402 348.631L116.167 426.924C107.398 422.731 97.5838 420.319 87.1856 420.319C49.9316 420.319 19.7 450.556 19.7 487.819C19.7 525.082 49.9316 555.321 87.1856 555.321C124.439 555.321 154.671 525.082 154.671 487.819C154.671 487.046 154.656 486.279 154.627 485.517L297.591 443.739C309.327 463.532 330.884 476.879 355.595 476.879C392.849 476.879 423.08 446.642 423.08 409.379C423.08 400.882 421.483 392.793 418.609 385.342L484.315 338.921C496.091 348.952 511.367 355.055 528.076 355.055C565.33 355.055 595.563 324.815 595.563 287.552C595.563 250.549 565.747 220.471 528.848 220.056ZM295.954 211.102L254.063 261.371L235.176 238.707L295.954 211.102ZM145.182 121.565L288.153 163.344C288.124 164.108 288.109 164.877 288.109 165.647C288.109 169.701 288.497 173.633 289.185 177.424L212.936 212.032L141.824 126.708C143.02 125.045 144.139 123.328 145.182 121.565ZM203.647 321.993L153.597 299.273C154.283 295.487 154.671 291.562 154.671 287.513C154.671 283.459 154.282 279.526 153.594 275.735L203.609 253.03L232.356 287.516L203.647 321.993ZM465.062 311.55L399.329 357.99C387.549 347.972 372.283 341.919 355.595 341.919C345.21 341.919 335.391 344.296 326.605 348.513L275.81 287.552L326.613 226.583C335.381 230.775 345.197 233.189 355.595 233.189C372.296 233.189 387.575 227.124 399.364 217.06L465.075 263.484C462.217 270.927 460.591 279.035 460.591 287.513C460.591 295.975 462.186 304.086 465.062 311.55ZM296.075 363.977L235.181 336.32L254.103 313.615L296.075 363.977ZM288.193 411.681L145.203 453.465C144.161 451.704 143.041 449.991 141.848 448.339L212.976 362.995L289.227 397.601C288.539 401.392 288.151 405.325 288.151 409.379C288.151 410.151 288.164 410.919 288.193 411.681Z" fill="#0891B2" stroke="#0891B2" stroke-width="10" stroke-linejoin="round"/>
</svg>
