<svg width="1920" height="1080" xmlns="http://www.w3.org/2000/svg" fill="none">

 <g>
  <title>Layer 1</title>
  <path stroke="#0891B2" id="svg_25" stroke-linejoin="round" stroke-width="10" fill="#0891B2" d="m1289.33179,275.75748c-0.30298,-0.03665 -0.61292,-0.05557 -0.92798,-0.05557c-20.08496,0 -38.46265,7.64902 -52.63672,20.34482l-79.02356,-58.56082c3.43335,-9.38846 5.39246,-19.61322 5.39246,-30.30847c0,-47.00165 -36.35571,-85.14429 -81.1571,-85.14429c-29.71118,0 -55.64502,16.78748 -69.75885,41.80066l-171.92285,-52.69507c0.03491,-0.95807 0.05176,-1.92603 0.05176,-2.90503c0,-47.04968 -36.35327,-85.1958 -81.15771,-85.1958c-44.80139,0 -81.15771,38.1424 -81.15771,85.14478c0,47.00183 36.35632,85.14471 81.15771,85.14471c12.48938,0 24.29785,-3.00079 34.86255,-8.31879l78.44165,98.74475l-49.9967,23.7908c-14.8761,-19.40878 -37.68933,-31.84225 -63.3075,-31.84225c-44.80139,0 -81.15771,38.14163 -81.15771,85.14453c0,47.00281 36.35632,85.14322 81.15771,85.14322c25.61816,0 48.4314,-12.43469 63.3075,-31.84109l49.9967,23.79102l-78.45129,98.75726c-10.54565,-5.289 -22.3479,-8.33136 -34.85291,-8.33136c-44.80139,0 -81.15771,38.14026 -81.15771,85.14313c0,47.00281 36.35632,85.14563 81.15771,85.14563c44.80078,0 81.15771,-38.14282 81.15771,-85.14563c0,-0.9751 -0.01807,-1.94257 -0.05298,-2.90369l171.92773,-52.698c14.11359,24.96655 40.03802,41.80225 69.75519,41.80225c44.80139,0 81.1571,-38.14044 81.1571,-85.14331c0,-10.7179 -1.92041,-20.92126 -5.37695,-30.31979l79.01782,-58.55463c14.16199,12.65292 32.53247,20.35117 52.62695,20.35117c44.80127,0 81.15918,-38.14417 81.15918,-85.14703c0,-46.6748 -35.8562,-84.61465 -80.2312,-85.13809zm-280.07684,-11.29446l-50.37781,63.40833l-22.7135,-28.58795l73.09131,-34.82037zm-181.31738,-112.94031l171.93604,52.69928c-0.03491,0.96362 -0.05298,1.93372 -0.05298,2.90497c0,5.11359 0.46667,10.07336 1.29407,14.85529l-91.69666,43.65384l-85.51892,-107.62607c1.43835,-2.09772 2.78406,-4.26349 4.03845,-6.4873zm70.30957,252.81619l-60.18982,-28.65863c0.82495,-4.7756 1.29163,-9.7265 1.29163,-14.83383c0,-5.11362 -0.46777,-10.07468 -1.29529,-14.85657l60.14783,-28.63965l34.57092,43.49997l-34.52527,43.48871zm314.3764,-13.17267l-79.05029,58.57852c-14.16675,-12.63654 -32.52539,-20.27164 -52.59436,-20.27164c-12.48901,0 -24.29724,2.99829 -34.86328,8.31754l-61.08575,-76.89508l61.09564,-76.90509c10.54443,5.28772 22.34888,8.33258 34.85339,8.33258c20.08459,0 38.45911,-7.65021 52.63635,-20.34476l79.02368,58.55838c-3.43689,9.38846 -5.39258,19.61569 -5.39258,30.30975c0,10.6738 1.91821,20.90488 5.3772,30.31979zm-203.22308,66.13043l-73.23071,-34.88599l22.75549,-28.63971l50.47522,63.5257zm-9.47888,60.17288l-171.95874,52.70563c-1.2533,-2.22131 -2.6001,-4.38202 -4.03479,-6.46582l85.53809,-107.65137l91.69897,43.65137c-0.82727,4.78186 -1.29395,9.74292 -1.29395,14.85651c0,0.97382 0.01575,1.94257 0.05042,2.90369z"/>
  <g stroke="null" id="svg_26">
   <path stroke="#0891B2" id="svg_1" stroke-linejoin="round" stroke-width="10" fill="white" d="m322.78326,750.367c0,-4.29077 -3.19135,-7.76917 -7.12347,-7.76917l-55.28961,0c-2.49377,0 -4.80756,1.42352 -6.09839,3.75256l-71.31995,128.79773l-71.69519,-128.81274c-1.29413,-2.3205 -3.60248,-3.73755 -6.08984,-3.73755l-55.06705,0c-3.93549,0 -7.12354,3.47839 -7.12354,7.76917l0,295.99384c0,4.2915 3.18805,7.76929 7.12354,7.76929l53.48013,0c3.93549,0 7.12347,-3.47778 7.12347,-7.76929l0,-163.47302l62.95758,113.11176c1.33862,2.4024 3.76416,3.8313 6.33923,3.73193l6.25684,-0.23895c2.39624,-0.09332 4.5907,-1.49506 5.83594,-3.72949l63.31348,-113.6228l0,164.22058c0,4.2915 3.18811,7.76929 7.12354,7.76929l53.12982,0c3.93213,0 7.12347,-3.47778 7.12347,-7.76929l0,-295.99384z"/>
   <path stroke="#0891B2" id="svg_2" stroke-linejoin="round" stroke-width="10" fill="white" d="m362.44116,742.59784c-3.93427,0 -7.12238,3.47839 -7.12238,7.76917l0,295.99384c0,4.2915 3.18811,7.76929 7.12238,7.76929l53.48126,0c3.93115,0 7.12024,-3.47778 7.12024,-7.76929l0,-295.99384c0,-4.29077 -3.18909,-7.76917 -7.12024,-7.76917l-53.48126,0z"/>
   <path stroke="#0891B2" id="svg_3" stroke-linejoin="round" stroke-width="10" fill="white" d="m623.33014,742.59784c-3.9375,0 -7.12671,3.47839 -7.12671,7.76917l0,155.79401l-103.39801,-160.26514c-1.33423,-2.06781 -3.50372,-3.29803 -5.82507,-3.29803l-40.65619,0c-3.93774,0 -7.12671,3.47839 -7.12671,7.76917l0,295.99384c0,4.2915 3.18896,7.76929 7.12671,7.76929l53.47791,0c3.93774,0 7.12683,-3.47778 7.12683,-7.76929l0,-156.34143l103.34375,160.8009c1.33423,2.07593 3.51453,3.30981 5.83594,3.30981l40.69971,0c3.93762,0 7.12683,-3.47778 7.12683,-7.76929l0,-295.99384c0,-4.29077 -3.18921,-7.76917 -7.12683,-7.76917l-53.47815,0z"/>
   <path stroke="#0891B2" id="svg_4" stroke-linejoin="round" stroke-width="10" fill="white" d="m720.133,1046.36084c0,4.2915 3.18921,7.76929 7.12683,7.76929l107.74768,0c39.06177,0 72.04907,-15.03809 98.37573,-45.12122c26.28345,-29.98718 39.37622,-67.07294 39.37622,-110.64423c0,-43.57855 -13.09277,-80.61462 -39.37622,-110.64429c-26.32666,-30.08423 -59.27039,-45.12256 -98.37573,-45.12256l-107.74768,0c-3.93762,0 -7.12683,3.47839 -7.12683,7.76917l0,295.99384zm114.87451,-63.60358c-0.27112,0 -0.53137,0.01532 -0.79163,0.04736l-46.35132,0l0,-168.83258l47.14294,0c21.73853,0 38.95337,7.78333 52.17639,23.117c13.29907,15.37628 20.17627,35.55981 20.17627,61.27563c0,25.70502 -6.90979,45.88861 -20.17627,61.27435c-13.23389,15.33722 -30.39465,23.11823 -52.17639,23.11823z"/>
   <path stroke="#0891B2" id="svg_5" stroke-linejoin="round" stroke-width="10" fill="white" d="m1044.04919,1054.13013l0.04333,0l64.45544,0c3.17834,0 5.97717,-2.30542 6.84473,-5.64941l44.23608,-170.11737l44.53943,170.13251c0.86804,3.33447 3.6665,5.63428 6.84509,5.63428l60.8866,0c3.23254,0 6.06372,-2.37988 6.88818,-5.7926l71.32214,-295.99536c0.56384,-2.32996 0.09753,-4.81165 -1.24768,-6.7193c-1.34497,-1.90759 -3.42761,-3.02502 -5.64063,-3.02502l-51.54688,0c-3.24365,0 -6.08569,2.40204 -6.89917,5.83826l-44.93018,190.98743l-49.63818,-191.1734c-0.86768,-3.34387 -3.67725,-5.65228 -6.85535,-5.65228l-46.3512,0c-3.18921,0 -5.98767,2.3147 -6.85571,5.66498l-49.4751,191.78888l-45.58118,-191.63593c-0.82434,-3.42584 -3.65564,-5.81793 -6.89893,-5.81793l-55.95123,0c-2.21289,0 -4.29553,1.11975 -5.64075,3.03052c-1.35596,1.91107 -1.8114,4.39624 -1.24744,6.72742l71.64752,295.15131c0.50989,3.74841 3.47131,6.62305 7.05103,6.62305z"/>
   <path stroke="#0891B2" id="svg_6" stroke-linejoin="round" stroke-width="10" fill="white" d="m1044.04919,1054.13013l0.04333,0l64.45544,0c3.17834,0 5.97717,-2.30542 6.84473,-5.64941l44.23608,-170.11737l44.53943,170.13251c0.86804,3.33447 3.6665,5.63428 6.84509,5.63428l60.8866,0c3.23254,0 6.06372,-2.37988 6.88818,-5.7926l71.32214,-295.99536c0.56384,-2.32983 0.09753,-4.81189 -1.24768,-6.7193c-1.34497,-1.90759 -3.42761,-3.0249 -5.64063,-3.0249l-51.54688,0c-3.24365,0 -6.08569,2.40247 -6.89917,5.83801l-44.93018,190.98755l-49.63818,-191.1734c-0.86768,-3.34387 -3.67725,-5.65216 -6.85535,-5.65216l-46.3512,0c-3.18921,0 -5.98767,2.31476 -6.85571,5.66486l-49.4751,191.78888l-45.58118,-191.63562c-0.82434,-3.42615 -3.65564,-5.81812 -6.89893,-5.81812l-55.95123,0c-2.21289,0 -4.29553,1.11951 -5.64075,3.0304c-1.35596,1.91107 -1.8114,4.39667 -1.24744,6.72742l71.64752,295.15131c0.50989,3.74841 3.47131,6.62305 7.05103,6.62305z"/>
   <path stroke="#0891B2" id="svg_7" stroke-linejoin="round" stroke-width="10" fill="white" d="m1378.9104,742.59784c-3.93799,0 -7.1272,3.47839 -7.1272,7.76917l0,295.99384c0,4.2915 3.18921,7.76929 7.1272,7.76929l53.47754,0c3.93774,0 7.12708,-3.47778 7.12708,-7.76929l0,-295.99384c0,-4.29077 -3.18933,-7.76917 -7.12708,-7.76917l-53.47754,0z"/>
   <path stroke="null" id="svg_8" fill="white" d="m1622.85864,878.75598c7.35486,3.21979 14.85034,6.98602 18.85303,9.77429c4.01343,2.83411 8.76465,7.24384 13.91711,12.04865c5.15247,4.80493 10.65222,11.71283 13.34253,16.8064m-46.11267,-38.62933l0.03247,0.01538c0,-0.00238 0.01111,0.00238 0,0m-0.03247,-0.01538c0.01074,0.00232 0.03247,0.013 0.03247,0.01538l-0.03247,-0.01538zm0,0c-7.35474,-3.26703 -13.5918,-5.8374 -17.86572,-7.37518c-4.27393,-1.53784 -10.66296,-3.74506 -18.9397,-6.58038c57.17712,8.81012 136.20105,69.24225 63.7832,169.4928c18.19128,-16.0484 29.96045,-43.81647 29.96045,-71.15515c0,-8.4588 -1.25793,-18.42938 -3.18909,-25.63678c-1.94177,-7.20837 -4.9032,-15.02246 -7.63647,-20.11597m-46.0802,-38.61395c7.58228,3.31683 13.67871,6.58759 18.19141,9.72565l0.0542,0.03326c4.33887,3.07184 9.17676,7.09357 14.49207,12.04865c5.57581,5.19171 10.14246,10.7442 13.34253,16.8064m-46.0802,-38.61395c-7.39795,-3.28833 -13.39648,-5.77234 -17.89819,-7.39056c-4.328,-1.55792 -10.63062,-3.73553 -18.90686,-6.5697l-0.03284,-0.01068c-20.13306,-6.77551 -32.71582,-12.75494 -38.72522,-17.64154c-5.38037,-4.36841 -7.79944,-9.64746 -7.79944,-16.40186c0,-6.30585 2.16956,-11.22894 6.81213,-15.24365l0.03259,-0.02014c4.67517,-4.07739 11.62842,-6.56622 21.71667,-6.56622c10.68469,0 19.53625,2.82831 26.85828,8.19391c7.35449,5.38922 13.63525,13.67639 18.62524,25.37384c0.8457,1.97546 2.40808,3.47296 4.31726,4.1283c1.90918,0.6554 3.97009,0.4082 5.70569,-0.6825l44.98438,-28.35022c3.23242,-2.03931 4.46899,-6.45837 2.84216,-10.12415c-9.82825,-22.03833 -23.66956,-39.45386 -41.50281,-51.95795c-17.96326,-12.55951 -38.62744,-18.77271 -61.8302,-18.77271c-26.06653,0 -48.72668,8.52289 -67.55823,25.69012c-19.21069,17.51129 -28.72375,41.15948 -28.72375,70.01227c0,14.41583 2.35376,27.46057 7.28918,38.83051c4.92493,11.38403 12.09509,20.76538 21.46741,28.15613c8.77551,6.91382 17.60547,12.50061 26.56531,16.69861c8.74292,4.0929 19.28687,8.13116 31.62036,12.12817l0.08667,0.02826c21.89038,6.75909 36.28503,12.81659 43.92139,17.96448c6.5304,4.43237 9.40491,10.12885 9.40491,17.70898c0,6.38623 -2.36487,11.69391 -7.74524,16.26202c-5.09839,4.33301 -14.17749,7.25116 -28.57202,7.25116c-14.44885,0 -25.93616,-3.50604 -34.91797,-10.01654c-8.9491,-6.4953 -15.97839,-16.39008 -20.85986,-30.26294c-0.74854,-2.12915 -2.3103,-3.79102 -4.28491,-4.54694c-1.97412,-0.75458 -4.1543,-0.52747 -5.95496,0.62463l-45.73303,29.16632c-2.96143,1.89252 -4.27393,5.83032 -3.10229,9.35413c8.01624,24.10712 21.90125,43.2876 41.5564,57.32837c19.43884,13.91663 43.10815,20.72534 70.51965,20.92163c0.37952,0.0686 0.7594,0.10303 1.14978,0.10303c30.42712,0 55.83191,-8.43518 75.61768,-25.84473c19.99182,-17.63934 29.96045,-41.65894 29.96045,-71.15515c0,-9.11176 -1.04126,-17.64044 -3.18909,-25.63678c-2.0498,-7.62579 -4.54504,-14.341 -7.63647,-20.11597m0,0c0,-0.00708 0,0.00842 0,0l0,0zm0,0c0,-0.00708 0,0.00842 0,0l0,0z"/>
   <path stroke="#0891B2" id="svg_9" stroke-linejoin="round" stroke-width="10" d="m1622.85864,878.75598c7.35486,3.21979 14.85034,6.98602 18.85303,9.77429c4.01343,2.83411 8.76465,7.24384 13.91711,12.04865m-32.77014,-21.82294l0.03247,0.01538m-0.03247,-0.01538c0.01074,0.00232 0.03247,0.013 0.03247,0.01538m-0.03247,-0.01538c-7.35474,-3.26703 -13.5918,-5.8374 -17.86572,-7.37518m50.63586,29.19812c5.15247,4.80493 10.65222,11.71283 13.34253,16.8064m-13.34253,-16.8064c-5.31531,-4.95508 -10.1532,-8.97681 -14.49207,-12.04865l-0.0542,-0.03326c-4.5127,-3.13806 -10.60913,-6.40881 -18.19141,-9.72565m32.73767,21.80756c5.57581,5.19171 10.14246,10.7442 13.34253,16.8064m0,0c2.73328,5.09351 5.6947,12.90759 7.63647,20.11597m-7.63647,-20.11597c3.09143,5.77496 5.58667,12.49017 7.63647,20.11597m-7.63647,-20.11597c0,-0.00824 0,0.00842 0,0zm-46.0802,-38.61395c0,-0.00238 0.01111,0.00238 0,0zm0,0c-7.39795,-3.28833 -13.39648,-5.77234 -17.89819,-7.39056m0,0c-4.27393,-1.53784 -10.66296,-3.74506 -18.9397,-6.58038m18.9397,6.58038c-4.328,-1.55792 -10.63062,-3.73553 -18.90686,-6.5697l-0.03284,-0.01068m0,0c57.17712,8.81012 136.20105,69.24225 63.7832,169.4928m-63.7832,-169.4928c-20.13306,-6.77551 -32.71582,-12.75494 -38.72522,-17.64154c-5.38037,-4.36841 -7.79944,-9.64746 -7.79944,-16.40186c0,-6.30585 2.16956,-11.22894 6.81213,-15.24365l0.03259,-0.02014c4.67517,-4.07739 11.62842,-6.56622 21.71667,-6.56622c10.68469,0 19.53625,2.82831 26.85828,8.19391c7.35449,5.38922 13.63525,13.67639 18.62524,25.37384c0.8457,1.97546 2.40808,3.47296 4.31726,4.1283c1.90918,0.6554 3.97009,0.4082 5.70569,-0.6825l44.98438,-28.35022c3.23242,-2.03931 4.46899,-6.45837 2.84216,-10.12415c-9.82825,-22.03833 -23.66956,-39.45386 -41.50281,-51.95795c-17.96326,-12.55951 -38.62744,-18.77271 -61.8302,-18.77271c-26.06653,0 -48.72668,8.52289 -67.55823,25.69012c-19.21069,17.51129 -28.72375,41.15948 -28.72375,70.01227c0,14.41583 2.35376,27.46057 7.28918,38.83051c4.92493,11.38403 12.09509,20.76538 21.46741,28.15613c8.77551,6.91382 17.60547,12.50061 26.56531,16.69861c8.74292,4.0929 19.28687,8.13116 31.62036,12.12817l0.08667,0.02826c21.89038,6.75909 36.28503,12.81659 43.92139,17.96448c6.5304,4.43237 9.40491,10.12885 9.40491,17.70898c0,6.38623 -2.36487,11.69391 -7.74524,16.26202c-5.09839,4.33301 -14.17749,7.25116 -28.57202,7.25116c-14.44885,0 -25.93616,-3.50604 -34.91797,-10.01654c-8.9491,-6.4953 -15.97839,-16.39008 -20.85986,-30.26294c-0.74854,-2.12915 -2.3103,-3.79102 -4.28491,-4.54694c-1.97412,-0.75458 -4.1543,-0.52747 -5.95496,0.62463l-45.73303,29.16632c-2.96143,1.89252 -4.27393,5.83032 -3.10229,9.35413c8.01624,24.10712 21.90125,43.2876 41.5564,57.32837c19.43884,13.91663 43.10815,20.72534 70.51965,20.92163c0.37952,0.0686 0.7594,0.10303 1.14978,0.10303c30.42712,0 55.83191,-8.43518 75.61768,-25.84473m0,0c18.19128,-16.0484 29.96045,-43.81647 29.96045,-71.15515m-29.96045,71.15515c19.99182,-17.63934 29.96045,-41.65894 29.96045,-71.15515m0,0c0,-8.4588 -1.25793,-18.42938 -3.18909,-25.63678m3.18909,25.63678c0,-9.11176 -1.04126,-17.64044 -3.18909,-25.63678"/>
   <path stroke="#0891B2" id="svg_10" stroke-linejoin="round" stroke-width="10" fill="white" d="m1870.50635,982.75726l-107.23792,0l0,-50.82013l95.60925,0c3.9375,0 7.12695,-3.47894 7.12695,-7.76917l0,-54.9707c0,-4.29047 -3.18945,-7.76941 -7.12695,-7.76941l-95.60925,0l0,-47.45581l105.30676,0c3.927,0 7.11609,-3.479 7.11609,-7.7691l0,-55.83594c0,-4.29077 -3.18909,-7.76917 -7.11609,-7.76917l-165.91162,0c-3.93774,0 -7.12695,3.47839 -7.12695,7.76917l0,295.99384c0,4.2915 3.18921,7.76929 7.12695,7.76929l167.84277,0c3.9375,0 7.12683,-3.47778 7.12683,-7.76929l0,-55.83447c0,-4.29138 -3.18933,-7.7691 -7.12683,-7.7691z"/>
  </g>
 </g>
</svg>